<svg width="16" height="24" viewBox="0 0 16 24" fill="none" xmlns="http://www.w3.org/2000/svg">
<path d="M7.86665 11.2667C6.35332 10.8733 5.86665 10.4667 5.86665 9.83333C5.86665 9.10667 6.53998 8.6 7.66665 8.6C8.85332 8.6 9.29332 9.16667 9.33332 10H10.8067C10.76 8.85333 10.06 7.8 8.66665 7.46V6H6.66665V7.44C5.37332 7.72 4.33332 8.56 4.33332 9.84667C4.33332 11.3867 5.60665 12.1533 7.46665 12.6C9.13332 13 9.46665 13.5867 9.46665 14.2067C9.46665 14.6667 9.13998 15.4 7.66665 15.4C6.29332 15.4 5.75332 14.7867 5.67998 14H4.21332C4.29332 15.46 5.38665 16.28 6.66665 16.5533V18H8.66665V16.5667C9.96665 16.32 11 15.5667 11 14.2C11 12.3067 9.37998 11.66 7.86665 11.2667Z" fill="#2C3E50"/>
</svg>
