<svg width="17" height="24" viewBox="0 0 17 24" fill="none" xmlns="http://www.w3.org/2000/svg">
<path d="M8.65995 5.33398C4.97995 5.33398 1.99329 8.32065 1.99329 12.0007C1.99329 15.6807 4.97995 18.6673 8.65995 18.6673C12.34 18.6673 15.3266 15.6807 15.3266 12.0007C15.3266 8.32065 12.34 5.33398 8.65995 5.33398ZM7.99329 17.2873C5.36662 16.9607 3.32662 14.7207 3.32662 12.0007C3.32662 11.5873 3.37995 11.194 3.46662 10.8073L6.65995 14.0007V14.6673C6.65995 15.4007 7.25995 16.0007 7.99329 16.0007V17.2873ZM12.5933 15.594C12.42 15.054 11.9266 14.6673 11.3266 14.6673H10.66V12.6673C10.66 12.3007 10.36 12.0007 9.99329 12.0007H5.99329V10.6673H7.32662C7.69329 10.6673 7.99329 10.3673 7.99329 10.0007V8.66732H9.32662C10.06 8.66732 10.66 8.06732 10.66 7.33398V7.06065C12.6133 7.85398 13.9933 9.76732 13.9933 12.0007C13.9933 13.3873 13.46 14.6473 12.5933 15.594Z" fill="#2C3E50"/>
</svg>
