<svg width="17" height="24" viewBox="0 0 17 24" fill="none" xmlns="http://www.w3.org/2000/svg">
<path d="M8.32994 5.33398C4.64994 5.33398 1.66327 8.32065 1.66327 12.0007C1.66327 15.6807 4.64994 18.6673 8.32994 18.6673C12.0099 18.6673 14.9966 15.6807 14.9966 12.0007C14.9966 8.32065 12.0099 5.33398 8.32994 5.33398ZM4.9966 13.0007C4.44327 13.0007 3.9966 12.554 3.9966 12.0007C3.9966 11.4473 4.44327 11.0007 4.9966 11.0007C5.54994 11.0007 5.9966 11.4473 5.9966 12.0007C5.9966 12.554 5.54994 13.0007 4.9966 13.0007ZM8.32994 13.0007C7.7766 13.0007 7.32994 12.554 7.32994 12.0007C7.32994 11.4473 7.7766 11.0007 8.32994 11.0007C8.88327 11.0007 9.32994 11.4473 9.32994 12.0007C9.32994 12.554 8.88327 13.0007 8.32994 13.0007ZM11.6633 13.0007C11.1099 13.0007 10.6633 12.554 10.6633 12.0007C10.6633 11.4473 11.1099 11.0007 11.6633 11.0007C12.2166 11.0007 12.6633 11.4473 12.6633 12.0007C12.6633 12.554 12.2166 13.0007 11.6633 13.0007Z" fill="#2C3E50"/>
</svg>
